# xmcd
#
# Track frame offsets: 
#        150
#        16957
#        36649
#        58670
#        72105
#        91547
#        113114
#        125822
#        141805
#        158950
#        176152
#        198325
#        218710
#        239909
#        259486
#        281859
#        299941
#
# Disc length: 4546 seconds
#
# Revision: 0
# Processed by: cddbd v1.5.2PL0 Copyright (c) Steve Scherf et al.
# Submitted via: ExactAudioCopy v1.0b3
#
DISCID=1b11c011
DTITLE=Eric Chruch - Caught In The Act [CD 1 von 2)
DYEAR=2013
DGENRE=Country
TTITLE0=Before She Does
TTITLE1=How 'Bout You
TTITLE2=Drink In My Hand
TTITLE3=Over When It's Over
TTITLE4=I'm Gettin' Stoned
TTITLE5=Creepin'
TTITLE6=Keep On
TTITLE7=Hungover and Hard Up
TTITLE8=Sinners Like Me
TTITLE9=Country Music Jesus
TTITLE10=Pledge Allegiance To The Hug
TTITLE11=Jack Daniels
TTITLE12=Homeboy
TTITLE13=Lotta Boot Left To Fill
TTITLE14=Smoke A Little Smoke
TTITLE15=These Boots
TTITLE16=Springsteen
EXTD=
EXTT0=
EXTT1=
EXTT2=
EXTT3=
EXTT4=
EXTT5=
EXTT6=
EXTT7=
EXTT8=
EXTT9=
EXTT10=
EXTT11=
EXTT12=
EXTT13=
EXTT14=
EXTT15=
EXTT16=
PLAYORDER=
